<?xml version="1.0" standalone="no"?>
<!DOCTYPE svg PUBLIC "-//W3C//DTD SVG 20010904//EN"
 "http://www.w3.org/TR/2001/REC-SVG-20010904/DTD/svg10.dtd">
<svg version="1.0" xmlns="http://www.w3.org/2000/svg"
 width="512.000000pt" height="512.000000pt" viewBox="0 0 512.000000 512.000000"
 preserveAspectRatio="xMidYMid meet">
<metadata>
Created by potrace 1.14, written by Peter Selinger 2001-2017
</metadata>
<g transform="translate(0.000000,512.000000) scale(0.100000,-0.100000)"
fill="#000000" stroke="none">
<path d="M780 4728 c-25 -4 -56 -16 -70 -26 -35 -26 -68 -96 -79 -167 -10 -62
-8 -327 3 -380 14 -65 50 -119 95 -144 44 -24 48 -24 345 -27 166 -1 303 -2
306 -3 3 0 5 -640 5 -1421 l0 -1420 -295 1 c-301 0 -335 -4 -386 -41 -60 -43
-84 -159 -80 -375 5 -210 33 -282 127 -322 26 -11 366 -13 1823 -11 l1791 3
41 24 c42 24 76 72 88 125 4 16 7 435 7 931 0 1014 4 958 -73 1011 -69 48
-180 65 -398 60 -195 -5 -281 -19 -349 -57 -42 -24 -80 -74 -90 -121 -4 -18
-7 -293 -6 -610 0 -510 -1 -578 -15 -579 -18 -1 -1215 -1 -1247 0 l-23 1 0
1403 1 1402 412 0 c226 0 434 4 461 9 34 6 58 19 82 42 51 52 66 114 70 294 3
177 -12 272 -52 333 -50 76 39 71 -1274 72 -646 1 -1195 -2 -1220 -7z"/>
</g>
</svg>
